<mxfile host="app.diagrams.net" modified="2024-01-15T15:19:10.246Z" agent="Mozilla/5.0 (Windows NT 10.0; Win64; x64) AppleWebKit/537.36 (KHTML, like Gecko) Chrome/110.0.0.0 Safari/537.36" etag="MVBOFY_ggyG3vMRJxUJ-" version="22.1.18" type="device">
  <diagram id="k8IpTYmz-kyzaLdKlD21" name="Página-1">
    <mxGraphModel dx="679" dy="2674" grid="1" gridSize="10" guides="1" tooltips="1" connect="1" arrows="1" fold="1" page="1" pageScale="1" pageWidth="900" pageHeight="2000" math="0" shadow="0">
      <root>
        <mxCell id="0" />
        <mxCell id="1" parent="0" />
        <mxCell id="8LdN6Ip3QQwT2Gwx7VTm-14" value="Empresa" style="swimlane;childLayout=stackLayout;horizontal=1;startSize=30;horizontalStack=0;rounded=1;fontSize=14;fontStyle=0;strokeWidth=2;resizeParent=0;resizeLast=1;shadow=0;dashed=0;align=center;" parent="1" vertex="1">
          <mxGeometry x="40" y="120" width="120" height="90" as="geometry">
            <mxRectangle x="40" y="120" width="120" height="30" as="alternateBounds" />
          </mxGeometry>
        </mxCell>
        <mxCell id="8LdN6Ip3QQwT2Gwx7VTm-15" value="-" style="align=left;strokeColor=none;fillColor=none;spacingLeft=4;fontSize=12;verticalAlign=top;resizable=0;rotatable=0;part=1;fontStyle=0" parent="8LdN6Ip3QQwT2Gwx7VTm-14" vertex="1">
          <mxGeometry y="30" width="120" height="60" as="geometry" />
        </mxCell>
        <mxCell id="8LdN6Ip3QQwT2Gwx7VTm-16" value="desarrolla" style="shape=rhombus;perimeter=rhombusPerimeter;whiteSpace=wrap;html=1;align=center;" parent="1" vertex="1">
          <mxGeometry x="480" y="115" width="80" height="40" as="geometry" />
        </mxCell>
        <mxCell id="8LdN6Ip3QQwT2Gwx7VTm-17" value="Proyecto" style="swimlane;childLayout=stackLayout;horizontal=1;startSize=30;horizontalStack=0;rounded=1;fontSize=14;fontStyle=0;strokeWidth=2;resizeParent=0;resizeLast=1;shadow=0;dashed=0;align=center;" parent="1" vertex="1">
          <mxGeometry x="600" y="120" width="140" height="200" as="geometry">
            <mxRectangle x="600" y="120" width="120" height="30" as="alternateBounds" />
          </mxGeometry>
        </mxCell>
        <mxCell id="8LdN6Ip3QQwT2Gwx7VTm-18" value="cod_Proyecto(PK)&#xa;Código&#xa;Nombre&#xa;Cliente&#xa;Descripción&#xa;Presupuesto&#xa;dni_Jefe&#xa;Num_Horas&#xa;Num_Horas_Estimadas&#xa;Fecha_Inicio&#xa;Fecha_Fin" style="align=left;strokeColor=none;fillColor=none;spacingLeft=4;fontSize=12;verticalAlign=top;resizable=0;rotatable=0;part=1;fontStyle=0" parent="8LdN6Ip3QQwT2Gwx7VTm-17" vertex="1">
          <mxGeometry y="30" width="140" height="170" as="geometry" />
        </mxCell>
        <mxCell id="8LdN6Ip3QQwT2Gwx7VTm-19" value="gestiondo en" style="shape=rhombus;perimeter=rhombusPerimeter;whiteSpace=wrap;html=1;align=center;" parent="1" vertex="1">
          <mxGeometry x="790" y="115" width="100" height="40" as="geometry" />
        </mxCell>
        <mxCell id="8LdN6Ip3QQwT2Gwx7VTm-20" value="Fase" style="swimlane;childLayout=stackLayout;horizontal=1;startSize=30;horizontalStack=0;rounded=1;fontSize=14;fontStyle=0;strokeWidth=2;resizeParent=0;resizeLast=1;shadow=0;dashed=0;align=center;" parent="1" vertex="1">
          <mxGeometry x="930" y="120" width="170" height="110" as="geometry">
            <mxRectangle x="930" y="120" width="120" height="30" as="alternateBounds" />
          </mxGeometry>
        </mxCell>
        <mxCell id="8LdN6Ip3QQwT2Gwx7VTm-21" value="id_Fase(PK)&#xa;Nombre&#xa;Fecha_Inicio&#xa;Fecha_Fin&#xa;Estado (En curso/finalizado)" style="align=left;strokeColor=none;fillColor=none;spacingLeft=4;fontSize=12;verticalAlign=top;resizable=0;rotatable=0;part=1;fontStyle=0" parent="8LdN6Ip3QQwT2Gwx7VTm-20" vertex="1">
          <mxGeometry y="30" width="170" height="80" as="geometry" />
        </mxCell>
        <mxCell id="8LdN6Ip3QQwT2Gwx7VTm-22" value="Empleado" style="swimlane;childLayout=stackLayout;horizontal=1;startSize=30;horizontalStack=0;rounded=1;fontSize=14;fontStyle=0;strokeWidth=2;resizeParent=0;resizeLast=1;shadow=0;dashed=0;align=center;" parent="1" vertex="1">
          <mxGeometry x="320" y="120" width="120" height="130" as="geometry">
            <mxRectangle x="320" y="120" width="120" height="30" as="alternateBounds" />
          </mxGeometry>
        </mxCell>
        <mxCell id="8LdN6Ip3QQwT2Gwx7VTm-23" value="DNI_empleado (PK)&#xa;Nombre&#xa;Dirección&#xa;Titulación&#xa;Años_experiencia&#xa;" style="align=left;strokeColor=none;fillColor=none;spacingLeft=4;fontSize=12;verticalAlign=top;resizable=0;rotatable=0;part=1;fontStyle=0" parent="8LdN6Ip3QQwT2Gwx7VTm-22" vertex="1">
          <mxGeometry y="30" width="120" height="100" as="geometry" />
        </mxCell>
        <mxCell id="8LdN6Ip3QQwT2Gwx7VTm-24" value="paga" style="shape=rhombus;perimeter=rhombusPerimeter;whiteSpace=wrap;html=1;align=center;" parent="1" vertex="1">
          <mxGeometry x="200" y="115" width="80" height="40" as="geometry" />
        </mxCell>
        <mxCell id="8LdN6Ip3QQwT2Gwx7VTm-25" value="Analista" style="swimlane;childLayout=stackLayout;horizontal=1;startSize=30;horizontalStack=0;rounded=1;fontSize=14;fontStyle=0;strokeWidth=2;resizeParent=0;resizeLast=1;shadow=0;dashed=0;align=center;" parent="1" vertex="1">
          <mxGeometry x="390" y="410" width="140" height="130" as="geometry">
            <mxRectangle x="390" y="410" width="140" height="30" as="alternateBounds" />
          </mxGeometry>
        </mxCell>
        <mxCell id="8LdN6Ip3QQwT2Gwx7VTm-26" value="H_Estimadas_Proyecto" style="align=left;strokeColor=none;fillColor=none;spacingLeft=4;fontSize=12;verticalAlign=top;resizable=0;rotatable=0;part=1;fontStyle=0" parent="8LdN6Ip3QQwT2Gwx7VTm-25" vertex="1">
          <mxGeometry y="30" width="140" height="100" as="geometry" />
        </mxCell>
        <mxCell id="8LdN6Ip3QQwT2Gwx7VTm-27" value="" style="triangle;whiteSpace=wrap;html=1;rotation=90;" parent="1" vertex="1">
          <mxGeometry x="357.5" y="292.5" width="45" height="60" as="geometry" />
        </mxCell>
        <mxCell id="8LdN6Ip3QQwT2Gwx7VTm-30" value="Programadores" style="swimlane;childLayout=stackLayout;horizontal=1;startSize=30;horizontalStack=0;rounded=1;fontSize=14;fontStyle=0;strokeWidth=2;resizeParent=0;resizeLast=1;shadow=0;dashed=0;align=center;" parent="1" vertex="1">
          <mxGeometry x="230" y="410" width="140" height="130" as="geometry">
            <mxRectangle x="230" y="410" width="140" height="30" as="alternateBounds" />
          </mxGeometry>
        </mxCell>
        <mxCell id="8LdN6Ip3QQwT2Gwx7VTm-31" value="H_Estimadas_Proyecto&#xa;Lenguajes_progr" style="align=left;strokeColor=none;fillColor=none;spacingLeft=4;fontSize=12;verticalAlign=top;resizable=0;rotatable=0;part=1;fontStyle=0" parent="8LdN6Ip3QQwT2Gwx7VTm-30" vertex="1">
          <mxGeometry y="30" width="140" height="100" as="geometry" />
        </mxCell>
        <mxCell id="8LdN6Ip3QQwT2Gwx7VTm-32" value="" style="endArrow=none;html=1;entryX=1;entryY=0.5;entryDx=0;entryDy=0;exitX=0.5;exitY=0;exitDx=0;exitDy=0;" parent="1" source="8LdN6Ip3QQwT2Gwx7VTm-30" target="8LdN6Ip3QQwT2Gwx7VTm-27" edge="1">
          <mxGeometry width="50" height="50" relative="1" as="geometry">
            <mxPoint x="320" y="400" as="sourcePoint" />
            <mxPoint x="370" y="350" as="targetPoint" />
          </mxGeometry>
        </mxCell>
        <mxCell id="8LdN6Ip3QQwT2Gwx7VTm-33" value="" style="endArrow=none;html=1;entryX=1;entryY=0.5;entryDx=0;entryDy=0;exitX=0.5;exitY=0;exitDx=0;exitDy=0;" parent="1" source="8LdN6Ip3QQwT2Gwx7VTm-25" target="8LdN6Ip3QQwT2Gwx7VTm-27" edge="1">
          <mxGeometry width="50" height="50" relative="1" as="geometry">
            <mxPoint x="235" y="420.0000000000001" as="sourcePoint" />
            <mxPoint x="390" y="355.0000000000001" as="targetPoint" />
          </mxGeometry>
        </mxCell>
        <mxCell id="8LdN6Ip3QQwT2Gwx7VTm-35" value="" style="endArrow=none;html=1;entryX=0.5;entryY=1;entryDx=0;entryDy=0;" parent="1" target="8LdN6Ip3QQwT2Gwx7VTm-23" edge="1">
          <mxGeometry width="50" height="50" relative="1" as="geometry">
            <mxPoint x="380" y="300" as="sourcePoint" />
            <mxPoint x="390" y="355.0000000000001" as="targetPoint" />
          </mxGeometry>
        </mxCell>
        <mxCell id="8LdN6Ip3QQwT2Gwx7VTm-36" value="" style="endArrow=none;html=1;exitX=0;exitY=0.5;exitDx=0;exitDy=0;entryX=1.009;entryY=0.165;entryDx=0;entryDy=0;entryPerimeter=0;" parent="1" source="8LdN6Ip3QQwT2Gwx7VTm-24" target="8LdN6Ip3QQwT2Gwx7VTm-14" edge="1">
          <mxGeometry width="50" height="50" relative="1" as="geometry">
            <mxPoint x="390" y="310.0000000000001" as="sourcePoint" />
            <mxPoint x="180" y="150" as="targetPoint" />
          </mxGeometry>
        </mxCell>
        <mxCell id="8LdN6Ip3QQwT2Gwx7VTm-37" value="" style="endArrow=none;html=1;exitX=-0.014;exitY=0.12;exitDx=0;exitDy=0;entryX=1;entryY=0.5;entryDx=0;entryDy=0;exitPerimeter=0;" parent="1" source="8LdN6Ip3QQwT2Gwx7VTm-22" target="8LdN6Ip3QQwT2Gwx7VTm-24" edge="1">
          <mxGeometry width="50" height="50" relative="1" as="geometry">
            <mxPoint x="210" y="145" as="sourcePoint" />
            <mxPoint x="171.08000000000015" y="144.85000000000002" as="targetPoint" />
          </mxGeometry>
        </mxCell>
        <mxCell id="8LdN6Ip3QQwT2Gwx7VTm-38" value="" style="endArrow=none;html=1;exitX=0;exitY=0.5;exitDx=0;exitDy=0;entryX=1.015;entryY=0.114;entryDx=0;entryDy=0;entryPerimeter=0;" parent="1" source="8LdN6Ip3QQwT2Gwx7VTm-16" target="8LdN6Ip3QQwT2Gwx7VTm-22" edge="1">
          <mxGeometry width="50" height="50" relative="1" as="geometry">
            <mxPoint x="328.32000000000016" y="145.60000000000002" as="sourcePoint" />
            <mxPoint x="290" y="145" as="targetPoint" />
          </mxGeometry>
        </mxCell>
        <mxCell id="8LdN6Ip3QQwT2Gwx7VTm-39" value="" style="endArrow=none;html=1;entryX=1;entryY=0.5;entryDx=0;entryDy=0;exitX=0;exitY=0.075;exitDx=0;exitDy=0;exitPerimeter=0;" parent="1" source="8LdN6Ip3QQwT2Gwx7VTm-17" target="8LdN6Ip3QQwT2Gwx7VTm-16" edge="1">
          <mxGeometry width="50" height="50" relative="1" as="geometry">
            <mxPoint x="580" y="150" as="sourcePoint" />
            <mxPoint x="451.79999999999995" y="144.82000000000005" as="targetPoint" />
          </mxGeometry>
        </mxCell>
        <mxCell id="8LdN6Ip3QQwT2Gwx7VTm-40" value="" style="endArrow=none;html=1;entryX=1.001;entryY=0.076;entryDx=0;entryDy=0;exitX=0;exitY=0.5;exitDx=0;exitDy=0;entryPerimeter=0;" parent="1" source="8LdN6Ip3QQwT2Gwx7VTm-19" target="8LdN6Ip3QQwT2Gwx7VTm-17" edge="1">
          <mxGeometry width="50" height="50" relative="1" as="geometry">
            <mxPoint x="610" y="145" as="sourcePoint" />
            <mxPoint x="570" y="145" as="targetPoint" />
          </mxGeometry>
        </mxCell>
        <mxCell id="8LdN6Ip3QQwT2Gwx7VTm-41" value="" style="endArrow=none;html=1;entryX=-0.007;entryY=0.134;entryDx=0;entryDy=0;exitX=1;exitY=0.5;exitDx=0;exitDy=0;entryPerimeter=0;" parent="1" source="8LdN6Ip3QQwT2Gwx7VTm-19" target="8LdN6Ip3QQwT2Gwx7VTm-20" edge="1">
          <mxGeometry width="50" height="50" relative="1" as="geometry">
            <mxPoint x="800" y="145" as="sourcePoint" />
            <mxPoint x="780.1400000000001" y="145.2" as="targetPoint" />
          </mxGeometry>
        </mxCell>
        <mxCell id="Db1gikmjJNznluE9aE0J-1" value="1:N" style="text;html=1;align=center;verticalAlign=middle;resizable=0;points=[];autosize=1;strokeColor=none;fillColor=none;" vertex="1" parent="1">
          <mxGeometry x="820" y="85" width="40" height="30" as="geometry" />
        </mxCell>
        <mxCell id="Db1gikmjJNznluE9aE0J-2" value="1:N" style="text;html=1;align=center;verticalAlign=middle;resizable=0;points=[];autosize=1;strokeColor=none;fillColor=none;" vertex="1" parent="1">
          <mxGeometry x="220" y="85" width="40" height="30" as="geometry" />
        </mxCell>
        <mxCell id="Db1gikmjJNznluE9aE0J-3" value="N:M" style="text;html=1;align=center;verticalAlign=middle;resizable=0;points=[];autosize=1;strokeColor=none;fillColor=none;" vertex="1" parent="1">
          <mxGeometry x="495" y="85" width="50" height="30" as="geometry" />
        </mxCell>
        <mxCell id="Db1gikmjJNznluE9aE0J-4" value="(1,N)" style="text;html=1;align=center;verticalAlign=middle;resizable=0;points=[];autosize=1;strokeColor=none;fillColor=none;" vertex="1" parent="1">
          <mxGeometry x="151" y="109" width="50" height="30" as="geometry" />
        </mxCell>
        <mxCell id="Db1gikmjJNznluE9aE0J-5" value="&lt;span style=&quot;color: rgb(0, 0, 0); font-family: Helvetica; font-size: 12px; font-style: normal; font-variant-ligatures: normal; font-variant-caps: normal; font-weight: 400; letter-spacing: normal; orphans: 2; text-align: center; text-indent: 0px; text-transform: none; widows: 2; word-spacing: 0px; -webkit-text-stroke-width: 0px; background-color: rgb(251, 251, 251); text-decoration-thickness: initial; text-decoration-style: initial; text-decoration-color: initial; float: none; display: inline !important;&quot;&gt;(1,N)&lt;/span&gt;" style="text;whiteSpace=wrap;html=1;" vertex="1" parent="1">
          <mxGeometry x="289" y="110" width="31" height="40" as="geometry" />
        </mxCell>
        <mxCell id="Db1gikmjJNznluE9aE0J-6" value="&lt;span style=&quot;color: rgb(0, 0, 0); font-family: Helvetica; font-size: 12px; font-style: normal; font-variant-ligatures: normal; font-variant-caps: normal; font-weight: 400; letter-spacing: normal; orphans: 2; text-align: center; text-indent: 0px; text-transform: none; widows: 2; word-spacing: 0px; -webkit-text-stroke-width: 0px; background-color: rgb(251, 251, 251); text-decoration-thickness: initial; text-decoration-style: initial; text-decoration-color: initial; float: none; display: inline !important;&quot;&gt;(1,N)&lt;/span&gt;" style="text;whiteSpace=wrap;html=1;" vertex="1" parent="1">
          <mxGeometry x="440" y="109" width="60" height="40" as="geometry" />
        </mxCell>
        <mxCell id="Db1gikmjJNznluE9aE0J-7" value="&lt;span style=&quot;color: rgb(0, 0, 0); font-family: Helvetica; font-size: 12px; font-style: normal; font-variant-ligatures: normal; font-variant-caps: normal; font-weight: 400; letter-spacing: normal; orphans: 2; text-align: center; text-indent: 0px; text-transform: none; widows: 2; word-spacing: 0px; -webkit-text-stroke-width: 0px; background-color: rgb(251, 251, 251); text-decoration-thickness: initial; text-decoration-style: initial; text-decoration-color: initial; float: none; display: inline !important;&quot;&gt;(0,N)&lt;/span&gt;" style="text;whiteSpace=wrap;html=1;" vertex="1" parent="1">
          <mxGeometry x="567" y="110" width="33" height="20" as="geometry" />
        </mxCell>
        <mxCell id="Db1gikmjJNznluE9aE0J-8" value="(1,N)" style="text;html=1;align=center;verticalAlign=middle;resizable=0;points=[];autosize=1;strokeColor=none;fillColor=none;" vertex="1" parent="1">
          <mxGeometry x="730" y="109" width="50" height="30" as="geometry" />
        </mxCell>
        <mxCell id="Db1gikmjJNznluE9aE0J-10" value="(1,N)" style="text;html=1;align=center;verticalAlign=middle;resizable=0;points=[];autosize=1;strokeColor=none;fillColor=none;" vertex="1" parent="1">
          <mxGeometry x="880" y="109" width="50" height="30" as="geometry" />
        </mxCell>
        <mxCell id="Db1gikmjJNznluE9aE0J-12" style="edgeStyle=orthogonalEdgeStyle;rounded=0;orthogonalLoop=1;jettySize=auto;html=1;entryX=0.951;entryY=0.458;entryDx=0;entryDy=0;entryPerimeter=0;" edge="1" parent="1" target="8LdN6Ip3QQwT2Gwx7VTm-27">
          <mxGeometry relative="1" as="geometry">
            <mxPoint x="390" y="344.0000000000001" as="targetPoint" />
            <mxPoint x="450" y="332.5" as="sourcePoint" />
            <Array as="points">
              <mxPoint x="450" y="340" />
              <mxPoint x="430" y="340" />
              <mxPoint x="430" y="343" />
            </Array>
          </mxGeometry>
        </mxCell>
        <mxCell id="Db1gikmjJNznluE9aE0J-11" value="especialidad" style="ellipse;whiteSpace=wrap;html=1;" vertex="1" parent="1">
          <mxGeometry x="401" y="327.5" width="80" height="28" as="geometry" />
        </mxCell>
        <mxCell id="Db1gikmjJNznluE9aE0J-13" value="genera" style="shape=rhombus;perimeter=rhombusPerimeter;whiteSpace=wrap;html=1;align=center;" vertex="1" parent="1">
          <mxGeometry x="1160" y="120" width="100" height="40" as="geometry" />
        </mxCell>
        <mxCell id="Db1gikmjJNznluE9aE0J-14" value="Producto" style="swimlane;childLayout=stackLayout;horizontal=1;startSize=30;horizontalStack=0;rounded=1;fontSize=14;fontStyle=0;strokeWidth=2;resizeParent=0;resizeLast=1;shadow=0;dashed=0;align=center;" vertex="1" parent="1">
          <mxGeometry x="1320" y="120" width="170" height="110" as="geometry">
            <mxRectangle x="1320" y="120" width="170" height="30" as="alternateBounds" />
          </mxGeometry>
        </mxCell>
        <mxCell id="Db1gikmjJNznluE9aE0J-15" value="cod_Producto&#xa;Nombre&#xa;Descripción&#xa;Estado (finalizado/en curso)" style="align=left;strokeColor=none;fillColor=none;spacingLeft=4;fontSize=12;verticalAlign=top;resizable=0;rotatable=0;part=1;fontStyle=0" vertex="1" parent="Db1gikmjJNznluE9aE0J-14">
          <mxGeometry y="30" width="170" height="80" as="geometry" />
        </mxCell>
        <mxCell id="Db1gikmjJNznluE9aE0J-16" value="N:M" style="text;html=1;align=center;verticalAlign=middle;resizable=0;points=[];autosize=1;strokeColor=none;fillColor=none;" vertex="1" parent="1">
          <mxGeometry x="1185" y="90" width="50" height="30" as="geometry" />
        </mxCell>
        <mxCell id="Db1gikmjJNznluE9aE0J-17" value="(1,N)" style="text;html=1;align=center;verticalAlign=middle;resizable=0;points=[];autosize=1;strokeColor=none;fillColor=none;" vertex="1" parent="1">
          <mxGeometry x="1090" y="115" width="50" height="30" as="geometry" />
        </mxCell>
        <mxCell id="Db1gikmjJNznluE9aE0J-19" value="" style="endArrow=none;html=1;entryX=0;entryY=0.5;entryDx=0;entryDy=0;exitX=0.995;exitY=0.185;exitDx=0;exitDy=0;exitPerimeter=0;" edge="1" parent="1" source="8LdN6Ip3QQwT2Gwx7VTm-20" target="Db1gikmjJNznluE9aE0J-13">
          <mxGeometry width="50" height="50" relative="1" as="geometry">
            <mxPoint x="1110" y="150" as="sourcePoint" />
            <mxPoint x="750" y="145" as="targetPoint" />
          </mxGeometry>
        </mxCell>
        <mxCell id="Db1gikmjJNznluE9aE0J-20" value="" style="endArrow=none;html=1;exitX=1;exitY=0.5;exitDx=0;exitDy=0;entryX=0.972;entryY=0.838;entryDx=0;entryDy=0;entryPerimeter=0;" edge="1" parent="1" source="Db1gikmjJNznluE9aE0J-13" target="Db1gikmjJNznluE9aE0J-21">
          <mxGeometry width="50" height="50" relative="1" as="geometry">
            <mxPoint x="1230.5555555555557" y="170" as="sourcePoint" />
            <mxPoint x="1310" y="140" as="targetPoint" />
          </mxGeometry>
        </mxCell>
        <mxCell id="Db1gikmjJNznluE9aE0J-21" value="(0,N)" style="text;html=1;align=center;verticalAlign=middle;resizable=0;points=[];autosize=1;strokeColor=none;fillColor=none;" vertex="1" parent="1">
          <mxGeometry x="1270" y="115" width="50" height="30" as="geometry" />
        </mxCell>
        <mxCell id="Db1gikmjJNznluE9aE0J-24" value="Informe Técnico" style="swimlane;childLayout=stackLayout;horizontal=1;startSize=30;horizontalStack=0;rounded=1;fontSize=14;fontStyle=0;strokeWidth=2;resizeParent=0;resizeLast=1;shadow=0;dashed=0;align=center;" vertex="1" parent="1">
          <mxGeometry x="1335" y="410" width="140" height="130" as="geometry">
            <mxRectangle x="390" y="410" width="140" height="30" as="alternateBounds" />
          </mxGeometry>
        </mxCell>
        <mxCell id="Db1gikmjJNznluE9aE0J-25" value="-" style="align=left;strokeColor=none;fillColor=none;spacingLeft=4;fontSize=12;verticalAlign=top;resizable=0;rotatable=0;part=1;fontStyle=0" vertex="1" parent="Db1gikmjJNznluE9aE0J-24">
          <mxGeometry y="30" width="140" height="100" as="geometry" />
        </mxCell>
        <mxCell id="Db1gikmjJNznluE9aE0J-26" value="" style="triangle;whiteSpace=wrap;html=1;rotation=90;" vertex="1" parent="1">
          <mxGeometry x="1382.5" y="292.5" width="45" height="60" as="geometry" />
        </mxCell>
        <mxCell id="Db1gikmjJNznluE9aE0J-27" value="Software" style="swimlane;childLayout=stackLayout;horizontal=1;startSize=30;horizontalStack=0;rounded=1;fontSize=14;fontStyle=0;strokeWidth=2;resizeParent=0;resizeLast=1;shadow=0;dashed=0;align=center;" vertex="1" parent="1">
          <mxGeometry x="1175" y="410" width="140" height="130" as="geometry">
            <mxRectangle x="230" y="410" width="140" height="30" as="alternateBounds" />
          </mxGeometry>
        </mxCell>
        <mxCell id="Db1gikmjJNznluE9aE0J-28" value="-" style="align=left;strokeColor=none;fillColor=none;spacingLeft=4;fontSize=12;verticalAlign=top;resizable=0;rotatable=0;part=1;fontStyle=0" vertex="1" parent="Db1gikmjJNznluE9aE0J-27">
          <mxGeometry y="30" width="140" height="100" as="geometry" />
        </mxCell>
        <mxCell id="Db1gikmjJNznluE9aE0J-29" value="" style="endArrow=none;html=1;entryX=1;entryY=0.5;entryDx=0;entryDy=0;exitX=0.5;exitY=0;exitDx=0;exitDy=0;" edge="1" parent="1" source="Db1gikmjJNznluE9aE0J-27" target="Db1gikmjJNznluE9aE0J-26">
          <mxGeometry width="50" height="50" relative="1" as="geometry">
            <mxPoint x="1345" y="400" as="sourcePoint" />
            <mxPoint x="1395" y="350" as="targetPoint" />
          </mxGeometry>
        </mxCell>
        <mxCell id="Db1gikmjJNznluE9aE0J-30" value="" style="endArrow=none;html=1;entryX=1;entryY=0.5;entryDx=0;entryDy=0;exitX=0.5;exitY=0;exitDx=0;exitDy=0;" edge="1" parent="1" source="Db1gikmjJNznluE9aE0J-24" target="Db1gikmjJNznluE9aE0J-26">
          <mxGeometry width="50" height="50" relative="1" as="geometry">
            <mxPoint x="1260" y="420.0000000000001" as="sourcePoint" />
            <mxPoint x="1415" y="355.0000000000001" as="targetPoint" />
          </mxGeometry>
        </mxCell>
        <mxCell id="Db1gikmjJNznluE9aE0J-31" style="edgeStyle=orthogonalEdgeStyle;rounded=0;orthogonalLoop=1;jettySize=auto;html=1;entryX=0.951;entryY=0.458;entryDx=0;entryDy=0;entryPerimeter=0;" edge="1" parent="1" target="Db1gikmjJNznluE9aE0J-26">
          <mxGeometry relative="1" as="geometry">
            <mxPoint x="1415" y="344.0000000000001" as="targetPoint" />
            <mxPoint x="1475" y="332.5" as="sourcePoint" />
            <Array as="points">
              <mxPoint x="1475" y="340" />
              <mxPoint x="1455" y="340" />
              <mxPoint x="1455" y="343" />
            </Array>
          </mxGeometry>
        </mxCell>
        <mxCell id="Db1gikmjJNznluE9aE0J-32" value="tipo" style="ellipse;whiteSpace=wrap;html=1;" vertex="1" parent="1">
          <mxGeometry x="1426" y="327.5" width="80" height="28" as="geometry" />
        </mxCell>
        <mxCell id="Db1gikmjJNznluE9aE0J-33" value="" style="endArrow=none;html=1;entryX=0;entryY=0.5;entryDx=0;entryDy=0;exitX=0.5;exitY=1;exitDx=0;exitDy=0;" edge="1" parent="1" source="Db1gikmjJNznluE9aE0J-15" target="Db1gikmjJNznluE9aE0J-26">
          <mxGeometry width="50" height="50" relative="1" as="geometry">
            <mxPoint x="1335" y="420" as="sourcePoint" />
            <mxPoint x="1415" y="355" as="targetPoint" />
          </mxGeometry>
        </mxCell>
        <mxCell id="Db1gikmjJNznluE9aE0J-34" value="Prototipo" style="swimlane;childLayout=stackLayout;horizontal=1;startSize=30;horizontalStack=0;rounded=1;fontSize=14;fontStyle=0;strokeWidth=2;resizeParent=0;resizeLast=1;shadow=0;dashed=0;align=center;" vertex="1" parent="1">
          <mxGeometry x="1499" y="410" width="140" height="130" as="geometry">
            <mxRectangle x="390" y="410" width="140" height="30" as="alternateBounds" />
          </mxGeometry>
        </mxCell>
        <mxCell id="Db1gikmjJNznluE9aE0J-35" value="Versión" style="align=left;strokeColor=none;fillColor=none;spacingLeft=4;fontSize=12;verticalAlign=top;resizable=0;rotatable=0;part=1;fontStyle=0" vertex="1" parent="Db1gikmjJNznluE9aE0J-34">
          <mxGeometry y="30" width="140" height="100" as="geometry" />
        </mxCell>
        <mxCell id="Db1gikmjJNznluE9aE0J-46" value="" style="endArrow=none;html=1;entryX=1;entryY=0.5;entryDx=0;entryDy=0;exitX=0.5;exitY=0;exitDx=0;exitDy=0;" edge="1" parent="1" source="Db1gikmjJNznluE9aE0J-34" target="Db1gikmjJNznluE9aE0J-26">
          <mxGeometry width="50" height="50" relative="1" as="geometry">
            <mxPoint x="1415" y="420" as="sourcePoint" />
            <mxPoint x="1415" y="355" as="targetPoint" />
          </mxGeometry>
        </mxCell>
        <mxCell id="Db1gikmjJNznluE9aE0J-47" value="" style="endArrow=none;html=1;entryX=0;entryY=0.75;entryDx=0;entryDy=0;exitX=1;exitY=0.5;exitDx=0;exitDy=0;" edge="1" parent="1" source="Db1gikmjJNznluE9aE0J-49" target="Db1gikmjJNznluE9aE0J-15">
          <mxGeometry width="50" height="50" relative="1" as="geometry">
            <mxPoint x="840" y="450" as="sourcePoint" />
            <mxPoint x="1425" y="365" as="targetPoint" />
          </mxGeometry>
        </mxCell>
        <mxCell id="Db1gikmjJNznluE9aE0J-49" value="responsable" style="shape=rhombus;perimeter=rhombusPerimeter;whiteSpace=wrap;html=1;align=center;" vertex="1" parent="1">
          <mxGeometry x="770" y="370" width="100" height="40" as="geometry" />
        </mxCell>
        <mxCell id="Db1gikmjJNznluE9aE0J-50" value="" style="endArrow=none;html=1;entryX=0;entryY=0.5;entryDx=0;entryDy=0;exitX=1.011;exitY=0.135;exitDx=0;exitDy=0;exitPerimeter=0;" edge="1" parent="1" source="8LdN6Ip3QQwT2Gwx7VTm-25" target="Db1gikmjJNznluE9aE0J-49">
          <mxGeometry width="50" height="50" relative="1" as="geometry">
            <mxPoint x="880" y="400" as="sourcePoint" />
            <mxPoint x="1330" y="220" as="targetPoint" />
          </mxGeometry>
        </mxCell>
        <mxCell id="Db1gikmjJNznluE9aE0J-51" value="1:N" style="text;html=1;align=center;verticalAlign=middle;resizable=0;points=[];autosize=1;strokeColor=none;fillColor=none;" vertex="1" parent="1">
          <mxGeometry x="800" y="344" width="40" height="30" as="geometry" />
        </mxCell>
        <mxCell id="Db1gikmjJNznluE9aE0J-52" value="(1:1)" style="text;html=1;align=center;verticalAlign=middle;resizable=0;points=[];autosize=1;strokeColor=none;fillColor=none;" vertex="1" parent="1">
          <mxGeometry x="522" y="394" width="50" height="30" as="geometry" />
        </mxCell>
        <mxCell id="Db1gikmjJNznluE9aE0J-53" value="(0:N)" style="text;html=1;align=center;verticalAlign=middle;resizable=0;points=[];autosize=1;strokeColor=none;fillColor=none;" vertex="1" parent="1">
          <mxGeometry x="1270" y="190" width="50" height="30" as="geometry" />
        </mxCell>
        <mxCell id="Db1gikmjJNznluE9aE0J-54" value="ocasiona" style="shape=rhombus;perimeter=rhombusPerimeter;whiteSpace=wrap;html=1;align=center;" vertex="1" parent="1">
          <mxGeometry x="340" y="-90" width="100" height="40" as="geometry" />
        </mxCell>
        <mxCell id="Db1gikmjJNznluE9aE0J-55" value="" style="endArrow=none;html=1;exitX=0.5;exitY=0;exitDx=0;exitDy=0;entryX=0;entryY=1;entryDx=0;entryDy=0;" edge="1" parent="1" source="8LdN6Ip3QQwT2Gwx7VTm-22" target="Db1gikmjJNznluE9aE0J-54">
          <mxGeometry width="50" height="50" relative="1" as="geometry">
            <mxPoint x="390" y="310" as="sourcePoint" />
            <mxPoint x="470" y="20" as="targetPoint" />
          </mxGeometry>
        </mxCell>
        <mxCell id="Db1gikmjJNznluE9aE0J-56" value="" style="endArrow=none;html=1;exitX=0.5;exitY=0;exitDx=0;exitDy=0;" edge="1" parent="1" source="8LdN6Ip3QQwT2Gwx7VTm-17">
          <mxGeometry width="50" height="50" relative="1" as="geometry">
            <mxPoint x="390" y="130" as="sourcePoint" />
            <mxPoint x="660" y="-40" as="targetPoint" />
          </mxGeometry>
        </mxCell>
        <mxCell id="Db1gikmjJNznluE9aE0J-57" value="" style="endArrow=none;html=1;entryX=0.5;entryY=0;entryDx=0;entryDy=0;exitX=0;exitY=0.75;exitDx=0;exitDy=0;" edge="1" parent="1" source="Db1gikmjJNznluE9aE0J-59" target="Db1gikmjJNznluE9aE0J-54">
          <mxGeometry width="50" height="50" relative="1" as="geometry">
            <mxPoint x="520" y="-200" as="sourcePoint" />
            <mxPoint x="530" as="targetPoint" />
          </mxGeometry>
        </mxCell>
        <mxCell id="Db1gikmjJNznluE9aE0J-58" value="Gastos" style="swimlane;childLayout=stackLayout;horizontal=1;startSize=30;horizontalStack=0;rounded=1;fontSize=14;fontStyle=0;strokeWidth=2;resizeParent=0;resizeLast=1;shadow=0;dashed=0;align=center;" vertex="1" parent="1">
          <mxGeometry x="460" y="-300" width="120" height="130" as="geometry">
            <mxRectangle x="460" y="-300" width="120" height="30" as="alternateBounds" />
          </mxGeometry>
        </mxCell>
        <mxCell id="Db1gikmjJNznluE9aE0J-59" value="-" style="align=left;strokeColor=none;fillColor=none;spacingLeft=4;fontSize=12;verticalAlign=top;resizable=0;rotatable=0;part=1;fontStyle=0" vertex="1" parent="Db1gikmjJNznluE9aE0J-58">
          <mxGeometry y="30" width="120" height="100" as="geometry" />
        </mxCell>
        <mxCell id="Db1gikmjJNznluE9aE0J-61" value="repercute" style="shape=rhombus;perimeter=rhombusPerimeter;whiteSpace=wrap;html=1;align=center;" vertex="1" parent="1">
          <mxGeometry x="590" y="-70" width="100" height="40" as="geometry" />
        </mxCell>
        <mxCell id="Db1gikmjJNznluE9aE0J-62" value="" style="endArrow=none;html=1;entryX=0.5;entryY=0;entryDx=0;entryDy=0;exitX=1;exitY=0.5;exitDx=0;exitDy=0;" edge="1" parent="1" source="Db1gikmjJNznluE9aE0J-59" target="Db1gikmjJNznluE9aE0J-61">
          <mxGeometry width="50" height="50" relative="1" as="geometry">
            <mxPoint x="530" y="-160" as="sourcePoint" />
            <mxPoint x="520" y="-50" as="targetPoint" />
          </mxGeometry>
        </mxCell>
      </root>
    </mxGraphModel>
  </diagram>
</mxfile>
